# xmcd
#
# Track frame offsets:
#	150
#	12968
#	26108
#	41028
#	56200
#	70442
#	83735
#	94891
#	107639
#	118820
#	129990
#	143108
#	153085
#	164759
#	178807
#	192749
#	204248
#	216025
#	228210
#	239388
#
# Disc length: 3362 seconds
#
# Revision: 1
# Processed by: cddbd v1.5.2PL0 Copyright (c) Steve Scherf et al.
# Submitted via: audiograbber 1.83.01
#
DISCID=220d2014
DTITLE=muddy waters - muddy waters i
DYEAR=1900
DGENRE=
TTITLE0=i'm your hoocie coochie man
TTITLE1=louisiana blues
TTITLE2=still a fool (two trains running)
TTITLE3=honey bee
TTITLE4=i feel like going home
TTITLE5=rollin' and tumblin' (part i)
TTITLE6=muddy jumps one
TTITLE7=stuff you gotta watch
TTITLE8=locked out boogie
TTITLE9=she's all right
TTITLE10=down south blues
TTITLE11=evans shuffle
TTITLE12=last time i fool around with you
TTITLE13=rollin' stone
TTITLE14=screamin' and cryin'
TTITLE15=little anna mae
TTITLE16=kind hearted woman
TTITLE17=howling wolf
TTITLE18=loving man
TTITLE19=i just want to make love to you
EXTD=
EXTT0=
EXTT1=
EXTT2=
EXTT3=
EXTT4=
EXTT5=
EXTT6=
EXTT7=
EXTT8=
EXTT9=
EXTT10=
EXTT11=
EXTT12=
EXTT13=
EXTT14=
EXTT15=
EXTT16=
EXTT17=
EXTT18=
EXTT19=
PLAYORDER=
